<svg width="240" height="70" viewBox="0 0 240 70" fill="none" xmlns="http://www.w3.org/2000/svg">
<g clip-path="url(#clip0_202_8)">
<path d="M18.528 42.256C19.936 42.256 21.024 42.352 21.792 42.544C22.56 42.672 23.168 42.896 23.616 43.216C23.744 43.344 23.744 43.472 23.616 43.6C23.552 43.664 23.456 43.696 23.328 43.696C20.576 43.696 18.048 44.016 15.744 44.656C13.44 45.296 11.488 46.224 9.888 47.44C8.288 48.592 7.04 50 6.144 51.664C5.248 53.328 4.8 55.184 4.8 57.232C4.8 58.96 5.088 60.56 5.664 62.032C6.304 63.44 7.136 64.688 8.16 65.776C9.248 66.8 10.496 67.6 11.904 68.176C13.312 68.752 14.784 69.04 16.32 69.04C19.136 69.04 21.536 68.112 23.52 66.256C25.568 64.336 27.36 61.808 28.896 58.672C30.496 55.536 31.968 51.984 33.312 48.016C34.656 44.048 36.032 39.984 37.44 35.824C38.656 32.368 39.968 28.976 41.376 25.648C42.784 22.256 44.384 19.152 46.176 16.336C48.032 13.52 50.144 11.024 52.512 8.848C54.88 6.672 57.6 5.072 60.672 4.048C53.184 4.432 46.368 5.07199 40.224 5.96799C34.144 6.8 28.928 7.952 24.576 9.424C20.288 10.896 16.96 12.688 14.592 14.8C12.224 16.912 11.04 19.408 11.04 22.288C11.04 25.168 12.064 27.44 14.112 29.104C16.224 30.704 19.008 31.504 22.464 31.504C22.592 31.504 22.688 31.568 22.752 31.696C22.88 31.76 22.88 31.856 22.752 31.984C22.304 32.304 21.696 32.56 20.928 32.752C20.16 32.88 19.104 32.944 17.76 32.944C14.56 32.944 12 32.112 10.08 30.448C8.16 28.72 7.2 26.352 7.2 23.344C7.2 20.016 8.416 17.2 10.848 14.896C13.344 12.528 16.512 10.608 20.352 9.136C24.256 7.6 28.576 6.416 33.312 5.584C38.048 4.688 42.688 4.04799 47.232 3.664C51.84 3.28 56.064 3.056 59.904 2.992C63.744 2.864 66.72 2.8 68.832 2.8C69.152 2.8 69.376 2.896 69.504 3.088C69.632 3.216 69.632 3.344 69.504 3.472C68.352 9.104 66.912 14.704 65.184 20.272C63.456 25.776 61.952 31.248 60.672 36.688C59.52 41.552 58.656 45.968 58.08 49.936C57.568 53.84 57.248 57.2 57.12 60.016C56.992 62.768 57.056 64.944 57.312 66.544C57.568 68.08 57.92 68.912 58.368 69.04C59.648 65.456 61.12 61.36 62.784 56.752C64.448 52.08 66.304 47.312 68.352 42.448C70.4 37.52 72.64 32.688 75.072 27.952C77.504 23.216 80.16 18.992 83.04 15.28C85.92 11.504 88.992 8.496 92.256 6.256C95.584 3.952 99.136 2.8 102.912 2.8C103.36 2.8 103.584 2.96 103.584 3.27999C103.584 3.59999 103.36 3.75999 102.912 3.75999C100.8 3.75999 98.592 4.56 96.288 6.16C94.048 7.696 91.776 9.776 89.472 12.4C87.232 15.024 84.992 18.064 82.752 21.52C80.512 24.912 78.368 28.496 76.32 32.272C74.272 35.984 72.32 39.76 70.464 43.6C68.672 47.376 67.008 50.96 65.472 54.352C64 57.68 62.72 60.688 61.632 63.376C60.608 66 59.808 68.048 59.232 69.52C59.168 69.648 59.136 69.712 59.136 69.712C59.008 69.84 58.912 69.904 58.848 69.904C58.848 69.904 58.816 69.936 58.752 70H58.464C57.44 70 56.544 69.2 55.776 67.6C55.072 65.936 54.592 63.632 54.336 60.688C54.08 57.68 54.112 54.064 54.432 49.84C54.816 45.616 55.584 40.944 56.736 35.824C57.376 32.944 58.144 30.032 59.04 27.088C60 24.144 60.96 21.328 61.92 18.64C62.944 15.952 63.936 13.52 64.896 11.344C65.856 9.168 66.656 7.408 67.296 6.064C67.424 5.872 67.552 5.552 67.68 5.10399C67.872 4.592 68.096 4.144 68.352 3.75999H67.872C64.544 3.952 61.632 5.04 59.136 7.024C56.64 8.944 54.368 11.472 52.32 14.608C50.336 17.68 48.512 21.2 46.848 25.168C45.184 29.072 43.552 33.072 41.952 37.168C40.352 41.264 38.72 45.296 37.056 49.264C35.392 53.168 33.536 56.656 31.488 59.728C29.44 62.8 27.136 65.296 24.576 67.216C22.016 69.072 19.04 70 15.648 70C13.6 70 11.68 69.68 9.888 69.04C8.096 68.336 6.528 67.376 5.184 66.16C3.904 64.944 2.88 63.504 2.112 61.84C1.344 60.112 0.96 58.256 0.96 56.272C0.96 54.16 1.376 52.272 2.208 50.608C3.104 48.88 4.32 47.408 5.856 46.192C7.392 44.912 9.216 43.952 11.328 43.312C13.504 42.608 15.904 42.256 18.528 42.256ZM75.2632 61.456C75.2632 59.408 75.6152 57.456 76.3193 55.6C77.0233 53.68 77.9833 52.016 79.1992 50.608C80.4153 49.136 81.8233 47.984 83.4233 47.152C85.0233 46.256 86.6873 45.808 88.4153 45.808C88.7993 45.808 89.3113 45.872 89.9513 46C90.2073 46.064 90.3353 46.224 90.3353 46.48C90.3353 46.736 90.2073 46.896 89.9513 46.96C88.4793 47.216 87.1033 47.888 85.8233 48.976C84.6073 50 83.5513 51.312 82.6553 52.912C81.7593 54.448 81.0553 56.144 80.5433 58C80.0953 59.792 79.8713 61.584 79.8713 63.376C79.8713 67.152 81.0873 69.04 83.5193 69.04C84.3513 69.04 85.1513 68.816 85.9193 68.368C86.6873 67.856 87.3913 67.216 88.0312 66.448C88.7353 65.616 89.3753 64.688 89.9513 63.664C90.5273 62.576 91.0393 61.488 91.4873 60.4C89.6953 59.952 88.2873 59.152 87.2633 58C86.3033 56.784 85.8233 55.312 85.8233 53.584C85.8233 51.984 86.2393 50.64 87.0713 49.552C87.9033 48.464 89.0233 47.92 90.4313 47.92C91.9033 47.92 93.0873 48.592 93.9833 49.936C94.8793 51.28 95.3273 52.976 95.3273 55.024C95.3273 56.496 95.0713 58.096 94.5593 59.824C96.0953 59.824 97.4713 59.536 98.6873 58.96C99.9033 58.384 100.895 57.424 101.663 56.08C101.791 55.888 101.919 55.792 102.047 55.792C102.239 55.792 102.399 55.888 102.527 56.08C102.655 56.208 102.655 56.368 102.527 56.56C102.143 57.328 101.663 57.968 101.087 58.48C100.575 58.992 99.9993 59.408 99.3593 59.728C97.8873 60.432 96.1913 60.784 94.2713 60.784C93.8233 62 93.2473 63.184 92.5433 64.336C91.8393 65.424 91.0073 66.384 90.0473 67.216C89.0873 68.048 88.0313 68.72 86.8793 69.232C85.7913 69.744 84.5753 70 83.2313 70C80.3513 70 78.3033 69.232 77.0873 67.696C75.8713 66.096 75.2632 64.016 75.2632 61.456ZM93.1193 53.008C93.1193 50.256 92.1913 48.88 90.3353 48.88C89.3113 48.88 88.4473 49.36 87.7433 50.32C87.1033 51.216 86.7833 52.336 86.7833 53.68C86.7833 55.152 87.2313 56.4 88.1273 57.424C89.0233 58.448 90.2393 59.152 91.7753 59.536C92.6713 57.04 93.1193 54.864 93.1193 53.008ZM124.672 56.08C124.8 55.888 124.928 55.792 125.056 55.792C125.248 55.792 125.408 55.888 125.536 56.08C125.664 56.208 125.664 56.368 125.536 56.56C124.704 58.096 123.648 59.664 122.368 61.264C121.088 62.8 119.648 64.24 118.048 65.584C116.448 66.864 114.752 67.92 112.96 68.752C111.168 69.584 109.376 70 107.584 70C105.152 70 103.232 69.328 101.824 67.984C100.48 66.64 99.8077 64.848 99.8077 62.608C99.8077 60.944 100.224 59.152 101.056 57.232C101.824 55.248 102.88 53.456 104.224 51.856C105.568 50.192 107.136 48.816 108.928 47.728C110.784 46.64 112.736 46.096 114.784 46.096C116.448 46.096 117.728 46.48 118.624 47.248C119.584 47.952 120.064 48.88 120.064 50.032C120.064 50.928 119.776 51.76 119.2 52.528C118.624 53.232 117.888 53.776 116.992 54.16C116.864 54.224 116.672 54.256 116.416 54.256C116.16 54.256 116.032 54.192 116.032 54.064C116.032 53.936 116.096 53.808 116.224 53.68C116.8 53.232 117.088 52.272 117.088 50.8C117.088 49.712 116.864 48.816 116.416 48.112C115.968 47.408 115.296 47.056 114.4 47.056C113.248 47.056 112.064 47.664 110.848 48.88C109.696 50.032 108.64 51.472 107.68 53.2C106.784 54.928 106.048 56.784 105.472 58.768C104.896 60.688 104.608 62.416 104.608 63.952C104.608 67.28 105.92 68.944 108.544 68.944C110.016 68.944 111.552 68.528 113.152 67.696C114.816 66.8 116.384 65.712 117.856 64.432C119.328 63.088 120.672 61.68 121.888 60.208C123.104 58.672 124.032 57.296 124.672 56.08ZM122.582 65.584C122.582 64.496 122.742 63.248 123.062 61.84C123.382 60.368 123.798 58.832 124.31 57.232C124.758 55.568 125.27 53.872 125.846 52.144C126.486 50.352 127.126 48.592 127.766 46.864C128.47 45.008 129.142 43.216 129.782 41.488C130.486 39.696 131.158 38 131.798 36.4H128.438C128.118 36.4 127.958 36.24 127.958 35.92C127.958 35.6 128.118 35.44 128.438 35.44H132.182C133.078 33.2 133.782 31.248 134.294 29.584C134.806 27.856 135.062 26.608 135.062 25.84C135.062 25.648 134.998 25.552 134.87 25.552C134.55 25.552 134.39 25.392 134.39 25.072C134.39 24.752 134.646 24.592 135.158 24.592C135.798 24.592 136.278 25.008 136.598 25.84C136.982 26.608 137.174 27.728 137.174 29.2C137.174 30.8 136.918 32.88 136.406 35.44H140.726C141.046 35.44 141.206 35.6 141.206 35.92C141.206 36.24 141.046 36.4 140.726 36.4H136.118C135.734 38.064 135.254 39.824 134.678 41.68C134.102 43.536 133.43 45.456 132.662 47.44C131.83 49.68 130.934 51.92 129.974 54.16C129.014 56.336 128.118 58.384 127.286 60.304C126.518 62.224 125.846 63.888 125.27 65.296C124.758 66.704 124.502 67.728 124.502 68.368C124.502 68.688 124.598 68.88 124.79 68.944C125.046 69.008 125.27 69.04 125.462 69.04C126.358 69.04 127.382 68.528 128.534 67.504C129.75 66.416 130.902 65.168 131.99 63.76C133.078 62.288 134.07 60.848 134.966 59.44C135.926 57.968 136.598 56.848 136.982 56.08C137.11 55.888 137.238 55.792 137.366 55.792C137.558 55.792 137.718 55.888 137.846 56.08C137.974 56.208 137.974 56.368 137.846 56.56C137.334 57.52 136.598 58.768 135.638 60.304C134.742 61.776 133.718 63.248 132.566 64.72C131.414 66.128 130.198 67.376 128.918 68.464C127.702 69.488 126.486 70 125.27 70C124.566 70 124.054 69.808 123.734 69.424C123.35 69.04 123.094 68.624 122.966 68.176C122.774 67.664 122.678 67.152 122.678 66.64C122.614 66.128 122.582 65.776 122.582 65.584ZM134.671 65.872C134.671 64.592 134.863 63.12 135.247 61.456C135.631 59.728 136.175 57.936 136.88 56.08C137.264 55.056 137.68 54.064 138.128 53.104C138.576 52.08 138.992 51.184 139.376 50.416C139.76 49.584 140.08 48.912 140.336 48.4C140.592 47.824 140.72 47.472 140.72 47.344C140.72 47.152 140.656 47.056 140.528 47.056C140.208 47.056 140.048 46.896 140.048 46.576C140.048 46.256 140.304 46.096 140.816 46.096C141.456 46.096 141.936 46.512 142.256 47.344C142.64 48.112 142.832 49.2 142.832 50.608C142.832 51.568 142.704 52.656 142.448 53.872C142.256 55.024 141.872 56.272 141.296 57.616C140.912 58.512 140.496 59.44 140.048 60.4C139.6 61.296 139.152 62.192 138.704 63.088C138.256 63.92 137.872 64.72 137.552 65.488C137.296 66.192 137.168 66.8 137.168 67.312C137.168 68.4 137.616 68.944 138.512 68.944C139.472 68.944 140.56 68.336 141.776 67.12C143.056 65.84 144.304 64.4 145.52 62.8C146.736 61.136 147.824 59.472 148.784 57.808C149.744 56.144 150.448 54.928 150.896 54.16C151.728 52.432 152.496 50.992 153.2 49.84C153.904 48.624 154.256 47.792 154.256 47.344C154.256 47.152 154.192 47.056 154.064 47.056C153.744 47.056 153.584 46.928 153.584 46.672C153.584 46.288 153.84 46.096 154.352 46.096C154.992 46.096 155.472 46.48 155.792 47.248C156.176 48.016 156.368 48.944 156.368 50.032C156.368 51.312 156.176 52.56 155.792 53.776C155.408 54.992 155.056 56.048 154.736 56.944C154.224 58.352 153.648 59.696 153.008 60.976C152.432 62.192 151.856 63.312 151.28 64.336C150.768 65.296 150.32 66.128 149.936 66.832C149.552 67.536 149.359 68.048 149.359 68.368C149.359 68.688 149.456 68.88 149.648 68.944C149.904 69.008 150.128 69.04 150.32 69.04C151.344 69.04 152.432 68.528 153.584 67.504C154.736 66.416 155.856 65.168 156.944 63.76C158.032 62.352 158.992 60.944 159.824 59.536C160.72 58.064 161.392 56.912 161.84 56.08C161.968 55.888 162.095 55.792 162.224 55.792C162.416 55.792 162.576 55.888 162.704 56.08C162.832 56.208 162.832 56.368 162.704 56.56C162.192 57.52 161.456 58.768 160.496 60.304C159.6 61.776 158.576 63.248 157.424 64.72C156.272 66.128 155.056 67.376 153.776 68.464C152.56 69.488 151.344 70 150.128 70C149.424 70 148.88 69.808 148.496 69.424C148.176 69.04 147.92 68.624 147.728 68.176C147.6 67.664 147.504 67.184 147.44 66.736C147.44 66.224 147.44 65.872 147.44 65.68C147.44 64.592 147.568 63.504 147.824 62.416C148.144 61.264 148.464 60.24 148.784 59.344C148.272 60.24 147.6 61.296 146.768 62.512C146 63.728 145.136 64.912 144.176 66.064C143.216 67.152 142.192 68.08 141.104 68.848C140.016 69.616 138.928 70 137.84 70C136.751 70 135.951 69.648 135.439 68.944C134.927 68.176 134.671 67.152 134.671 65.872ZM161.723 56.272C162.235 55.376 162.683 54.576 163.067 53.872C163.451 53.168 163.803 52.464 164.123 51.76C164.507 51.056 164.891 50.352 165.275 49.648C165.659 48.88 166.075 48.048 166.523 47.152C165.819 46.256 165.467 45.2 165.467 43.984C165.467 43.216 165.691 42.384 166.139 41.488C166.587 40.592 167.259 40.144 168.155 40.144C168.987 40.144 169.403 40.592 169.403 41.488C169.403 42.32 169.179 43.248 168.731 44.272C168.347 45.296 167.995 46.16 167.675 46.864C168.315 47.312 169.051 47.536 169.883 47.536C170.523 47.536 171.067 47.408 171.515 47.152C172.027 46.896 172.475 46.608 172.859 46.288C173.051 46.096 173.243 46.032 173.435 46.096C174.075 46.096 174.555 46.48 174.875 47.248C175.259 48.016 175.451 48.944 175.451 50.032C175.451 51.312 175.259 52.56 174.875 53.776C174.491 54.992 174.139 56.048 173.819 56.944C173.307 58.352 172.731 59.696 172.091 60.976C171.515 62.192 170.939 63.312 170.363 64.336C169.851 65.296 169.403 66.128 169.019 66.832C168.635 67.536 168.443 68.048 168.443 68.368C168.443 68.688 168.539 68.88 168.731 68.944C168.987 69.008 169.211 69.04 169.403 69.04C170.427 69.04 171.515 68.528 172.667 67.504C173.819 66.416 174.939 65.168 176.027 63.76C177.115 62.352 178.075 60.944 178.907 59.536C179.803 58.064 180.475 56.912 180.923 56.08C181.051 55.888 181.179 55.792 181.307 55.792C181.499 55.792 181.659 55.888 181.787 56.08C181.915 56.208 181.915 56.368 181.787 56.56C181.275 57.52 180.539 58.768 179.579 60.304C178.683 61.776 177.659 63.248 176.507 64.72C175.355 66.128 174.139 67.376 172.859 68.464C171.643 69.488 170.427 70 169.211 70C168.507 70 167.963 69.808 167.579 69.424C167.259 69.04 167.003 68.624 166.811 68.176C166.683 67.664 166.587 67.184 166.523 66.736C166.523 66.224 166.523 65.872 166.523 65.68C166.523 64.208 166.779 62.736 167.291 61.264C167.803 59.728 168.219 58.512 168.539 57.616C169.499 54.928 170.523 52.688 171.611 50.896C172.763 49.104 173.339 47.92 173.339 47.344C173.019 47.664 172.539 47.952 171.899 48.208C171.259 48.4 170.587 48.496 169.883 48.496C168.859 48.496 167.995 48.272 167.291 47.824C166.395 49.616 165.595 51.152 164.891 52.432C164.251 53.648 163.483 55.088 162.587 56.752C162.523 56.944 162.363 57.04 162.107 57.04C161.979 57.04 161.851 56.976 161.723 56.848C161.595 56.72 161.595 56.528 161.723 56.272ZM181.04 69.04C181.232 68.72 181.52 68.24 181.904 67.6C182.352 66.896 182.8 66.096 183.248 65.2C183.76 64.304 184.272 63.344 184.784 62.32C185.296 61.296 185.808 60.272 186.32 59.248C187.088 57.648 187.888 56.08 188.72 54.544C189.552 52.944 190.416 51.536 191.312 50.32C192.208 49.04 193.104 48.016 194 47.248C194.896 46.48 195.792 46.096 196.688 46.096C197.584 46.096 198.32 46.576 198.896 47.536C199.536 48.432 199.856 49.808 199.856 51.664C199.856 53.072 199.696 54.544 199.376 56.08C199.056 57.552 198.64 58.896 198.128 60.112C197.424 61.776 196.592 63.376 195.632 64.912C194.736 66.448 194.288 67.568 194.288 68.272C194.288 68.592 194.384 68.816 194.576 68.944C194.832 69.008 195.056 69.04 195.248 69.04C196.144 69.04 197.168 68.528 198.32 67.504C199.536 66.416 200.688 65.168 201.776 63.76C202.864 62.288 203.856 60.848 204.752 59.44C205.712 57.968 206.384 56.848 206.768 56.08C206.896 55.888 207.024 55.792 207.152 55.792C207.344 55.792 207.504 55.888 207.632 56.08C207.76 56.208 207.76 56.368 207.632 56.56C207.12 57.52 206.384 58.768 205.424 60.304C204.528 61.776 203.504 63.248 202.352 64.72C201.2 66.128 199.984 67.376 198.704 68.464C197.488 69.488 196.272 70 195.056 70C194.352 70 193.808 69.808 193.424 69.424C193.04 69.04 192.752 68.592 192.56 68.08C192.368 67.568 192.24 67.056 192.176 66.544C192.112 65.968 192.08 65.52 192.08 65.2C192.08 63.92 192.24 62.736 192.56 61.648C192.88 60.56 193.2 59.632 193.52 58.864C194.416 56.368 195.28 54.224 196.112 52.432C197.008 50.64 197.456 49.264 197.456 48.304C197.456 47.472 197.072 47.056 196.304 47.056C195.664 47.056 194.928 47.44 194.096 48.208C193.328 48.912 192.528 49.872 191.696 51.088C190.928 52.304 190.128 53.68 189.296 55.216C188.528 56.688 187.76 58.192 186.992 59.728C186.096 61.584 185.232 63.344 184.4 65.008C183.568 66.608 182.896 67.856 182.384 68.752C182 69.584 181.52 70 180.944 70C180.24 70 179.728 69.808 179.408 69.424C179.024 69.04 178.768 68.624 178.64 68.176C178.448 67.664 178.352 67.184 178.352 66.736C178.288 66.224 178.256 65.872 178.256 65.68C178.256 64.208 178.512 62.736 179.024 61.264C179.536 59.728 179.952 58.512 180.272 57.616C181.232 54.928 182.256 52.688 183.344 50.896C184.496 49.104 185.072 47.92 185.072 47.344C185.072 47.152 185.008 47.056 184.88 47.056C184.56 47.056 184.4 46.928 184.4 46.672C184.4 46.288 184.656 46.096 185.168 46.096C185.808 46.096 186.288 46.48 186.608 47.248C186.992 48.016 187.184 48.944 187.184 50.032C187.184 51.312 186.992 52.56 186.608 53.776C186.224 54.992 185.872 56.048 185.552 56.944C185.04 58.352 184.464 59.696 183.824 60.976C183.248 62.192 182.672 63.312 182.096 64.336C181.584 65.296 181.136 66.128 180.752 66.832C180.368 67.536 180.176 68.08 180.176 68.464C180.176 68.72 180.272 68.88 180.464 68.944C180.656 69.008 180.848 69.04 181.04 69.04ZM205.477 62.032C205.477 60.304 205.797 58.512 206.438 56.656C207.078 54.736 208.006 53.008 209.222 51.472C210.438 49.936 211.91 48.656 213.638 47.632C215.43 46.608 217.414 46.096 219.59 46.096C221.574 46.096 222.95 46.544 223.718 47.44C224.55 48.272 224.966 49.456 224.966 50.992C224.966 51.632 224.934 52.112 224.87 52.432C225.574 51.152 226.15 50.096 226.598 49.264C227.11 48.368 227.366 47.728 227.366 47.344C227.366 47.152 227.302 47.056 227.174 47.056C226.854 47.056 226.694 46.928 226.694 46.672C226.694 46.288 226.95 46.096 227.462 46.096C228.102 46.096 228.582 46.48 228.902 47.248C229.286 48.016 229.478 48.944 229.478 50.032C229.478 51.312 229.286 52.56 228.902 53.776C228.518 54.992 228.166 56.048 227.846 56.944C227.334 58.352 226.758 59.696 226.118 60.976C225.542 62.192 224.966 63.312 224.39 64.336C223.878 65.296 223.43 66.128 223.046 66.832C222.662 67.536 222.47 68.048 222.47 68.368C222.47 68.688 222.566 68.88 222.758 68.944C223.014 69.008 223.238 69.04 223.43 69.04C224.454 69.04 225.542 68.528 226.694 67.504C227.846 66.416 228.966 65.168 230.054 63.76C231.142 62.352 232.102 60.944 232.934 59.536C233.83 58.064 234.502 56.912 234.95 56.08C235.078 55.888 235.206 55.792 235.334 55.792C235.526 55.792 235.686 55.888 235.814 56.08C235.942 56.208 235.942 56.368 235.814 56.56C235.302 57.52 234.566 58.768 233.606 60.304C232.71 61.776 231.686 63.248 230.534 64.72C229.382 66.128 228.166 67.376 226.886 68.464C225.67 69.488 224.454 70 223.238 70C222.534 70 221.99 69.808 221.606 69.424C221.286 69.04 221.03 68.624 220.838 68.176C220.71 67.664 220.614 67.184 220.549 66.736C220.549 66.224 220.549 65.872 220.549 65.68C220.549 64.656 220.678 63.664 220.934 62.704C220.806 62.96 220.71 63.12 220.646 63.184C220.134 64.016 219.59 64.848 219.014 65.68C218.438 66.512 217.798 67.248 217.094 67.888C216.39 68.528 215.622 69.04 214.79 69.424C213.958 69.808 212.998 70 211.91 70C209.734 70 208.102 69.232 207.014 67.696C205.989 66.16 205.477 64.272 205.477 62.032ZM210.278 64.432C210.278 65.776 210.502 66.896 210.95 67.792C211.398 68.624 212.07 69.04 212.966 69.04C213.99 69.04 214.982 68.56 215.942 67.6C216.966 66.64 217.894 65.52 218.726 64.24C219.622 62.96 220.422 61.648 221.126 60.304C221.83 58.896 222.374 57.776 222.758 56.944C222.95 56.624 223.11 56.208 223.238 55.696C223.43 55.184 223.558 54.64 223.622 54.064C223.75 53.424 223.846 52.848 223.91 52.336C223.974 51.76 224.006 51.312 224.006 50.992C224.006 48.368 222.95 47.056 220.838 47.056C219.366 47.056 217.99 47.664 216.71 48.88C215.43 50.096 214.31 51.6 213.35 53.392C212.39 55.12 211.622 57.008 211.046 59.056C210.534 61.04 210.278 62.832 210.278 64.432Z" fill="url(#paint0_linear_202_8)"/>
</g>
<defs>
<linearGradient id="paint0_linear_202_8" x1="-3.7965e-07" y1="17.2522" x2="254.232" y2="64.8213" gradientUnits="userSpaceOnUse">
<stop offset="0.078125" stop-color="#AE8625"/>
<stop offset="0.375" stop-color="#EDE477"/>
<stop offset="0.541667" stop-color="#F5BD02"/>
<stop offset="0.9999" stop-color="#F5BD02"/>
</linearGradient>
<clipPath id="clip0_202_8">
<rect width="240" height="70" fill="white"/>
</clipPath>
</defs>
</svg>
