<?xml version="1.0" encoding="UTF-8"?>
<svg width="1000px" height="1000px" viewBox="0 0 1000 1000" version="1.1" xmlns="http://www.w3.org/2000/svg" xmlns:xlink="http://www.w3.org/1999/xlink">
    <!-- Generator: Sketch 52.6 (67491) - http://www.bohemiancoding.com/sketch -->
    <title>symbol</title>
    <desc>Created with Sketch.</desc>
    <g id="symbol" stroke="none" stroke-width="1" fill="none" fill-rule="evenodd">
        <circle id="Oval" stroke="#FFFFFF" stroke-width="10" cx="500" cy="500" r="444"></circle>
        <circle id="Oval" stroke="#FFFFFF" stroke-width="10" cx="500" cy="500" r="369"></circle>
        <g id="glasen" transform="translate(569.400339, 492.874710) rotate(13.000000) translate(-569.400339, -492.874710) translate(307.900339, 221.874710)" stroke="#FFFFFF">
            <g id="vänster" transform="translate(0.145419, 82.108437)">
                <path d="M33.755068,5.70003873 C17.2795625,112.999591 13.2439214,181.58211 21.426293,210.426423 C32.5903752,249.781795 48.7367392,264.507244 73.3927395,264.507244 C80.42074,264.507244 88.8091418,260.414241 96.4549642,252.49539 C105.622741,243.000235 113.054673,228.834901 117.644408,210.59131 C126.980424,173.481883 121.674834,105.000057 101.524511,5.70002236 L33.755074,5.7 Z" id="Rectangle" stroke-width="11.4"></path>
                <path d="M70.2733813,269.730926 L70.2733813,406.99215" id="Line-2" stroke-width="10.2599997" stroke-linecap="square"></path>
                <path d="M6.11947163,444.410413 C6.57243388,444.607195 7.08095175,444.812241 7.64076107,445.022093 C11.2166211,446.362557 16.4511849,447.749844 22.6968045,448.988188 C36.7646601,451.777479 53.9481956,453.473916 70.1088445,453.417708 C85.8777727,453.362864 103.01499,451.576364 117.268727,448.751112 C123.574121,447.501311 128.901258,446.118216 132.563446,444.801809 C133.069525,444.619895 133.535911,444.441859 133.959578,444.269888 C133.676348,444.015067 133.360972,443.745825 133.01378,443.463726 C130.443819,441.375589 126.421839,438.810147 120.99355,435.821739 C110.15091,429.852597 93.9093103,422.304675 72.3098272,413.205431 C49.2196802,422.141563 31.8602763,429.613223 20.2749196,435.593016 C14.4802593,438.583935 10.1858502,441.174939 7.44017651,443.310329 C6.93748863,443.701284 6.49697672,444.069317 6.11947163,444.410413 Z" id="Rectangle" stroke-width="9.5"></path>
            </g>
            <g id="höger" transform="translate(303.357735, 203.888958) rotate(-49.000000) translate(-303.357735, -203.888958) translate(232.357735, -24.611042)" stroke-width="11.4">
                <path d="M33.9749636,5.70003878 C17.3719105,112.617641 13.3050852,180.956608 21.5477451,209.687075 C32.7982681,248.901695 49.0820258,263.58564 73.9733017,263.58564 C81.0853106,263.58564 89.5583956,259.497755 97.2728102,251.597606 C106.511414,242.136572 113.99869,228.026042 118.622498,209.853454 C128.028472,172.885897 122.681863,104.64853 102.374971,5.7 L33.9749696,5.7 Z" id="Rectangle"></path>
                <path d="M70.8292683,268.810946 L70.8292683,405.604009" id="Line-2" stroke-linecap="square"></path>
                <path d="M8.01327207,442.596437 C11.5672584,443.912508 16.7957324,445.28217 23.0418116,446.506695 C37.165975,449.275695 54.4290959,450.960846 70.6604792,450.905027 C86.4984202,450.850561 103.71695,449.075746 118.030947,446.270418 C124.247268,445.052112 129.507897,443.707618 133.147785,442.430349 C130.594936,440.441421 126.707798,438.010796 121.534402,435.194704 C110.691508,429.29247 94.4532594,421.82638 72.8682108,412.828495 C49.7832587,421.669184 32.420301,429.062964 20.8305232,434.977847 C15.0349382,437.935644 10.7500067,440.491891 8.03453682,442.580069 C8.0274351,442.58553 8.02034685,442.590986 8.01327207,442.596437 Z" id="Rectangle"></path>
            </g>
        </g>
    </g>
</svg>